<svg width="1920" height="1080" viewBox="0 0 1920 1080" fill="none" xmlns="http://www.w3.org/2000/svg">
    <path d="M0.5 1077.24V0.5H1919.5C1919.47 35.2124 1918.33 69.0172 1916.11 100.988C1913.91 132.511 1910.61 163.138 1906.28 192.018C1902.03 220.335 1896.69 247.771 1890.39 273.563C1884.21 298.831 1876.95 323.236 1868.8 346.099C1860.82 368.475 1851.77 390.008 1841.89 410.1C1832.24 429.743 1821.52 448.565 1810.03 466.043C1798.82 483.11 1786.56 499.382 1773.59 514.405C1760.94 529.056 1747.26 542.937 1732.92 555.663C1718.97 568.055 1703.99 579.707 1688.41 590.294C1673.27 600.586 1657.12 610.168 1640.41 618.774C1624.21 627.122 1607.01 634.794 1589.3 641.575C1572.15 648.138 1554.03 654.058 1535.43 659.172C1517.48 664.106 1498.55 668.434 1479.18 672.035C1460.54 675.499 1440.94 678.394 1420.91 680.64C1401.73 682.79 1381.57 684.411 1360.99 685.457C1341.4 686.453 1320.81 686.958 1299.8 686.96C1299.78 686.96 1299.75 686.96 1299.73 686.96C1283.68 686.96 1266.93 686.666 1249.94 686.086C1233.77 685.534 1216.86 684.705 1199.69 683.622C1168.11 681.632 1135.1 678.783 1098.76 674.911C1031.54 667.75 964.969 658.342 900.589 649.244C844.494 641.316 791.51 633.828 741.11 628.214C714.083 625.203 690.19 622.998 668.065 621.473C643.369 619.77 621.365 618.943 600.794 618.943C581.142 618.943 562.762 619.737 546.166 621.303C537.483 622.122 529.056 623.173 521.118 624.426C512.976 625.712 505.093 627.251 497.69 629.001C475.28 634.297 452.999 640.822 431.465 648.393C410.868 655.636 390.408 664.028 370.653 673.338C351.816 682.215 333.124 692.16 315.095 702.897C297.968 713.097 280.991 724.278 264.637 736.13C208.062 777.128 156.252 827.895 110.646 887.02C92.7307 910.246 75.7414 934.835 60.1502 960.101C47.6771 980.315 36.0657 1001.01 25.6383 1021.6C16.3605 1039.92 9.7569 1054.78 5.85119 1064.01C3.27325 1070.11 1.49855 1074.62 0.5 1077.24Z" fill="#2D62ED"/>
    <path d="M1 1V1074.56C2.03894 1071.91 3.49915 1068.29 5.39075 1063.82C9.29956 1054.57 15.9078 1039.71 25.1924 1021.37C35.6257 1000.77 47.2443 980.064 59.7245 959.839C75.325 934.557 92.3243 909.955 110.25 886.715C155.885 827.552 207.73 776.751 264.343 735.724C280.71 723.864 297.699 712.675 314.839 702.467C332.882 691.722 351.589 681.77 370.439 672.886C390.21 663.569 410.686 655.17 431.3 647.922C452.849 640.344 475.148 633.815 497.575 628.514C504.99 626.762 512.885 625.22 521.04 623.932C528.988 622.677 537.426 621.625 546.119 620.805C562.731 619.238 581.126 618.443 600.794 618.443C621.379 618.443 643.397 619.271 668.107 620.974C690.242 622.5 714.146 624.705 741.182 627.717C791.596 633.332 844.591 640.821 900.697 648.749C965.067 657.844 1031.63 667.25 1098.83 674.41C1135.16 678.28 1168.16 681.129 1199.73 683.12C1216.9 684.202 1233.8 685.031 1249.97 685.584C1266.97 686.165 1283.74 686.46 1299.8 686.46C1320.8 686.46 1341.38 685.955 1360.97 684.96C1381.53 683.916 1401.68 682.297 1420.85 680.148C1440.87 677.905 1460.46 675.012 1479.08 671.551C1498.45 667.953 1517.36 663.628 1535.3 658.698C1553.88 653.589 1571.99 647.674 1589.12 641.117C1606.81 634.342 1623.99 626.678 1640.18 618.338C1656.87 609.741 1673 600.17 1688.13 589.889C1703.69 579.314 1718.65 567.675 1732.59 555.297C1746.91 542.585 1760.57 528.719 1773.21 514.085C1786.16 499.078 1798.41 482.824 1809.61 465.774C1821.09 448.312 1831.8 429.508 1841.44 409.884C1851.31 389.809 1860.36 368.293 1868.33 345.934C1876.48 323.086 1883.73 298.698 1889.9 273.446C1896.2 247.668 1901.54 220.247 1905.78 191.945C1910.11 163.078 1913.42 132.464 1915.61 100.954C1917.82 69.1487 1918.96 35.5242 1919 1H1ZM0 0H1920C1919.72 566.173 1629.03 687.46 1299.8 687.46C1053.18 687.46 784.94 619.443 600.794 619.443C562.496 619.443 527.872 622.381 497.805 629.487C130.178 716.372 0 1080 0 1080V0Z" fill="#707070"/>
</svg>
