<svg width="33" height="34" viewBox="0 0 33 34" fill="none" xmlns="http://www.w3.org/2000/svg">
    <path opacity="0.5" d="M10.5 28.5C9.11929 28.5 8 29.6193 8 31C8 32.3807 9.11929 33.5 10.5 33.5H28.5C29.8807 33.5 31 32.3807 31 31C31 29.6193 29.8807 28.5 28.5 28.5H10.5Z" fill="white"/>
    <path d="M3.5 21.5C2.11929 21.5 1 22.6193 1 24C1 25.3807 2.11929 26.5 3.5 26.5H24.5C25.8807 26.5 27 25.3807 27 24C27 22.6193 25.8807 21.5 24.5 21.5H3.5Z" fill="white"/>
    <path opacity="0.5" d="M10.5 14.5C9.11929 14.5 8 15.6193 8 17C8 18.3807 9.11929 19.5 10.5 19.5H20.5C21.8807 19.5 23 18.3807 23 17C23 15.6193 21.8807 14.5 20.5 14.5H10.5Z" fill="white"/>
    <path d="M2.5 7.5C1.11929 7.5 0 8.61929 0 10C0 11.3807 1.11929 12.5 2.5 12.5L24.5 12.5C25.8807 12.5 27 11.3807 27 10C27 8.61929 25.8807 7.5 24.5 7.5L2.5 7.5Z" fill="white"/>
    <path opacity="0.5" d="M10.5 0.5C9.11929 0.5 8 1.61929 8 3C8 4.38071 9.11929 5.5 10.5 5.5L30.5 5.5C31.8807 5.5 33 4.38071 33 3C33 1.61929 31.8807 0.5 30.5 0.5L10.5 0.5Z" fill="white"/>
</svg>
