<svg width="33" height="32" viewBox="0 0 33 32" fill="none" xmlns="http://www.w3.org/2000/svg">
    <path opacity="0.5" d="M5 6.49902C5 5.11831 3.88071 3.99902 2.5 3.99902C1.11929 3.99902 0 5.11831 0 6.49902V24.499C0 25.8797 1.11929 26.999 2.5 26.999C3.88071 26.999 5 25.8797 5 24.499V6.49902Z" fill="white"/>
    <path d="M12 8.49902C12 7.11831 10.8807 5.99902 9.5 5.99902C8.11929 5.99902 7 7.11831 7 8.49902V29.499C7 30.8797 8.11929 31.999 9.5 31.999C10.8807 31.999 12 30.8797 12 29.499V8.49902Z" fill="white"/>
    <path opacity="0.5" d="M19 12.499C19 11.1183 17.8807 9.99902 16.5 9.99902C15.1193 9.99902 14 11.1183 14 12.499V22.499C14 23.8797 15.1193 24.999 16.5 24.999C17.8807 24.999 19 23.8797 19 22.499V12.499Z" fill="white"/>
    <path d="M26 2.49902C26 1.11831 24.8807 -0.000976562 23.5 -0.000976562C22.1193 -0.000976562 21 1.11831 21 2.49902V24.499C21 25.8797 22.1193 26.999 23.5 26.999C24.8807 26.999 26 25.8797 26 24.499V2.49902Z" fill="white"/>
    <path opacity="0.5" d="M33 8.49902C33 7.11831 31.8807 5.99902 30.5 5.99902C29.1193 5.99902 28 7.11831 28 8.49902V28.499C28 29.8797 29.1193 30.999 30.5 30.999C31.8807 30.999 33 29.8797 33 28.499V8.49902Z" fill="white"/>
</svg>
